# xmcd CD database file
#
# Track frame offsets:
#	150
#	13638
#	31203
#	40134
#	53516
#	64110
#	76626
#	89943
#	99246
#	112038
#	122445
#	133305
#	145785
#	156503
#
# Disc length: 2264 seconds
#
# Revision: 0
# Processed by: cddbd v1.5.1PL0 Copyright (c) Steve Scherf et al.
# Submitted via: CDex 1.51
#
DISCID=b508d60e
DTITLE=Ray Charles - Los años dorados Volumen 3
DYEAR=1998
DGENRE=Blues
TTITLE0=Eleanor Rigby
TTITLE1=Ruby
TTITLE2=Hit The Road Jack
TTITLE3=Take These Chains From My Heart
TTITLE4=Hey Now
TTITLE5=Rockin' Chair Blues
TTITLE6=Alone In The City
TTITLE7=All To Myself (Alone)
TTITLE8=Can Anyone Ask For Me
TTITLE9=Sitting On Top Of The World
TTITLE10=I Wonder Who's
TTITLE11=I'm Glad For Your Sake
TTITLE12=They've Crazy About Me
TTITLE13=The Snow Is Falling
EXTD=YEAR: 1998
EXTT0=
EXTT1=
EXTT2=
EXTT3=
EXTT4=
EXTT5=
EXTT6=
EXTT7=
EXTT8=
EXTT9=
EXTT10=
EXTT11=
EXTT12=
EXTT13=
PLAYORDER=
